<svg width="400" height="400" viewBox="0 0 400 400" fill="none" xmlns="http://www.w3.org/2000/svg">
<path d="M200 366.666C176.944 366.666 155.278 362.291 135 353.541C114.722 344.791 97.0833 332.916 82.0833 317.916C67.0833 302.917 55.2084 285.278 46.4584 265C37.7084 244.722 33.3334 223.055 33.3334 200C33.3334 176.944 37.7084 155.278 46.4584 135C55.2084 114.722 67.0833 97.0833 82.0833 82.0833C97.0833 67.0833 114.722 55.2084 135 46.4584C155.278 37.7084 176.944 33.3334 200 33.3334C223.055 33.3334 244.722 37.7084 265 46.4584C285.278 55.2084 302.917 67.0833 317.916 82.0833C332.916 97.0833 344.791 114.722 353.541 135C362.291 155.278 366.666 176.944 366.666 200C366.666 223.055 362.291 244.722 353.541 265C344.791 285.278 332.916 302.917 317.916 317.916C302.917 332.916 285.278 344.791 265 353.541C244.722 362.291 223.055 366.666 200 366.666ZM200 333.333C237.222 333.333 268.75 320.416 294.583 294.583C320.416 268.75 333.333 237.222 333.333 200C333.333 162.778 320.416 131.25 294.583 105.417C268.75 79.5833 237.222 66.6667 200 66.6667C162.778 66.6667 131.25 79.5833 105.417 105.417C79.5833 131.25 66.6667 162.778 66.6667 200C66.6667 237.222 79.5833 268.75 105.417 294.583C131.25 320.416 162.778 333.333 200 333.333ZM200 300C172.222 300 148.611 290.278 129.167 270.833C109.722 251.389 100 227.778 100 200C100 172.222 109.722 148.611 129.167 129.167C148.611 109.722 172.222 100 200 100C227.778 100 251.389 109.722 270.833 129.167C290.278 148.611 300 172.222 300 200C300 227.778 290.278 251.389 270.833 270.833C251.389 290.278 227.778 300 200 300ZM200 266.667C218.333 266.667 234.028 260.139 247.083 247.083C260.139 234.028 266.667 218.333 266.667 200C266.667 181.667 260.139 165.972 247.083 152.917C234.028 139.861 218.333 133.333 200 133.333C181.667 133.333 165.972 139.861 152.917 152.917C139.861 165.972 133.333 181.667 133.333 200C133.333 218.333 139.861 234.028 152.917 247.083C165.972 260.139 181.667 266.667 200 266.667ZM200 233.333C190.833 233.333 182.986 230.069 176.458 223.542C169.93 217.014 166.667 209.167 166.667 200C166.667 190.833 169.93 182.986 176.458 176.458C182.986 169.93 190.833 166.667 200 166.667C209.167 166.667 217.014 169.93 223.542 176.458C230.069 182.986 233.333 190.833 233.333 200C233.333 209.167 230.069 217.014 223.542 223.542C217.014 230.069 209.167 233.333 200 233.333Z" fill="#E3E3E3"/>
</svg>
